<svg width="101" height="88" viewBox="0 0 101 88" fill="none" xmlns="http://www.w3.org/2000/svg">
<g filter="url(#filter0_d_49_2458)">
<rect width="93" height="80" transform="translate(4)" fill="white"/>
<path d="M51.4729 30.6949L51.473 30.695L60.2059 37.4863C60.2059 37.4863 60.2059 37.4863 60.2059 37.4863C60.6145 37.8049 60.389 38.4586 59.8726 38.4586H58.8341H58.3341V38.9586V47.2919C58.3341 47.7119 58.1673 48.1146 57.8703 48.4115C57.5734 48.7085 57.1707 48.8753 56.7508 48.8753H44.2508C43.8308 48.8753 43.4281 48.7085 43.1312 48.4115C42.8342 48.1146 42.6674 47.7119 42.6674 47.2919V38.9586V38.4586H42.1674H41.1289C40.6119 38.4586 40.3879 37.8045 40.7953 37.4876L49.5285 30.696L49.5696 30.6641C49.8398 30.4676 50.1657 30.3613 50.5008 30.3613C50.8529 30.3613 51.195 30.4787 51.4729 30.6949Z" stroke="#9A9A9A"/>
</g>
<defs>
<filter id="filter0_d_49_2458" x="0" y="0" width="101" height="88" filterUnits="userSpaceOnUse" color-interpolation-filters="sRGB">
<feFlood flood-opacity="0" result="BackgroundImageFix"/>
<feColorMatrix in="SourceAlpha" type="matrix" values="0 0 0 0 0 0 0 0 0 0 0 0 0 0 0 0 0 0 127 0" result="hardAlpha"/>
<feOffset dy="4"/>
<feGaussianBlur stdDeviation="2"/>
<feComposite in2="hardAlpha" operator="out"/>
<feColorMatrix type="matrix" values="0 0 0 0 0.0470588 0 0 0 0 0.317647 0 0 0 0 0.0588235 0 0 0 0.09 0"/>
<feBlend mode="normal" in2="BackgroundImageFix" result="effect1_dropShadow_49_2458"/>
<feBlend mode="normal" in="SourceGraphic" in2="effect1_dropShadow_49_2458" result="shape"/>
</filter>
</defs>
</svg>
