<svg width="375" height="47" viewBox="0 0 375 47" fill="none" xmlns="http://www.w3.org/2000/svg">
<rect width="402" height="50" transform="translate(-18 -3)" fill="white"/>
<path d="M43.7666 22.7231C42.9089 22.7231 42.1424 22.9058 41.4673 23.271C40.7977 23.6307 40.272 24.1287 39.8901 24.7651C39.5138 25.396 39.3257 26.1182 39.3257 26.9316V26.9482C39.3257 27.7008 39.4917 28.376 39.8237 28.9736C40.1613 29.5713 40.6234 30.0417 41.21 30.3848C41.7965 30.7279 42.4717 30.8994 43.2354 30.8994C43.7887 30.8994 44.2702 30.8164 44.6797 30.6504C45.0947 30.4844 45.4434 30.2658 45.7256 29.9946C46.0078 29.7235 46.2209 29.4302 46.3647 29.1147H46.6553V26.9067H46.1572V26.9233C46.1572 27.3716 46.0521 27.7728 45.8418 28.127C45.6315 28.4811 45.3465 28.7578 44.9868 28.957C44.6271 29.1562 44.2204 29.2559 43.7666 29.2559C43.3128 29.2559 42.9089 29.1535 42.5547 28.9487C42.2005 28.744 41.9211 28.4645 41.7163 28.1104C41.5116 27.7507 41.4092 27.3384 41.4092 26.8735V26.8569C41.4092 26.4087 41.5171 26.0047 41.7329 25.645C41.9487 25.2798 42.2365 24.992 42.5962 24.7817C42.9559 24.5715 43.3516 24.4663 43.7832 24.4663C44.2314 24.4663 44.6326 24.5742 44.9868 24.79C45.3465 25.0059 45.6315 25.2992 45.8418 25.6699C46.0521 26.0407 46.1572 26.453 46.1572 26.9067L46.5308 28.9072C46.5308 28.9847 46.5308 29.0649 46.5308 29.1479C46.5308 29.2254 46.528 29.3057 46.5225 29.3887C46.4948 30.1523 46.3786 30.8496 46.1738 31.4805C45.9746 32.1058 45.673 32.6066 45.269 32.9829C44.8706 33.3537 44.356 33.5391 43.7251 33.5391C43.3765 33.5391 43.061 33.4837 42.7788 33.373C42.5021 33.2568 42.2642 33.0936 42.0649 32.8833C41.8713 32.673 41.7218 32.4295 41.6167 32.1528L41.5835 32.0698H39.4834L39.5 32.1611C39.6328 32.7699 39.8901 33.3122 40.272 33.7881C40.6593 34.2585 41.1463 34.6292 41.7329 34.9004C42.325 35.166 42.9891 35.2988 43.7251 35.2988C44.7267 35.2988 45.5872 35.0443 46.3066 34.5352C47.0316 34.0205 47.5877 33.2845 47.9751 32.3271C48.3625 31.3698 48.5562 30.2188 48.5562 28.874V28.8574C48.5562 27.7728 48.4289 26.8459 48.1743 26.0767C47.9198 25.3019 47.5684 24.6683 47.1201 24.1758C46.6774 23.6777 46.1683 23.3125 45.5928 23.0801C45.0173 22.8421 44.4085 22.7231 43.7666 22.7231ZM52.3247 33.3896C52.7065 33.3896 53.022 33.2651 53.271 33.0161C53.52 32.7616 53.6445 32.4517 53.6445 32.0864C53.6445 31.7157 53.52 31.4058 53.271 31.1567C53.022 30.9022 52.7065 30.7749 52.3247 30.7749C51.9484 30.7749 51.633 30.9022 51.3784 31.1567C51.1294 31.4058 51.0049 31.7157 51.0049 32.0864C51.0049 32.4517 51.1294 32.7616 51.3784 33.0161C51.633 33.2651 51.9484 33.3896 52.3247 33.3896ZM52.3247 27.2305C52.7065 27.2305 53.022 27.106 53.271 26.8569C53.52 26.6024 53.6445 26.2925 53.6445 25.9272C53.6445 25.5565 53.52 25.2466 53.271 24.9976C53.022 24.743 52.7065 24.6157 52.3247 24.6157C51.9484 24.6157 51.633 24.743 51.3784 24.9976C51.1294 25.2466 51.0049 25.5565 51.0049 25.9272C51.0049 26.2925 51.1294 26.6024 51.3784 26.8569C51.633 27.106 51.9484 27.2305 52.3247 27.2305ZM61.9038 35H63.9458V32.7007H65.5645V30.9326H63.9458V23.022H60.9326C60.6006 23.5145 60.2686 24.0208 59.9365 24.541C59.61 25.0557 59.2808 25.5786 58.9487 26.1099C58.6222 26.6356 58.293 27.1696 57.9609 27.7119C57.6344 28.2487 57.3107 28.7882 56.9897 29.3306C56.6743 29.8729 56.3589 30.4124 56.0435 30.9492V32.7007H61.9038V35ZM58.0356 30.9824V30.8579C58.2681 30.4484 58.5088 30.0361 58.7578 29.6211C59.0068 29.2005 59.2586 28.7827 59.5132 28.3677C59.7677 27.9471 60.0251 27.5293 60.2852 27.1143C60.5452 26.6992 60.8026 26.2925 61.0571 25.894C61.3172 25.4956 61.569 25.1082 61.8125 24.7319H61.937V30.9824H58.0356ZM70.52 35H72.6533V23.022H70.52L67.3906 25.2217V27.2305L70.3706 25.1304H70.52V35Z" fill="black"/>
<path fill-rule="evenodd" clip-rule="evenodd" d="M289.865 24.0329C289.865 23.3999 289.387 22.8867 288.798 22.8867H287.732C287.143 22.8867 286.665 23.3999 286.665 24.0329V33.9669C286.665 34.5999 287.143 35.1131 287.732 35.1131H288.798C289.387 35.1131 289.865 34.5999 289.865 33.9669V24.0329ZM282.431 25.332H283.498C284.087 25.332 284.564 25.8575 284.564 26.5057V33.9394C284.564 34.5876 284.087 35.1131 283.498 35.1131H282.431C281.842 35.1131 281.364 34.5876 281.364 33.9394V26.5057C281.364 25.8575 281.842 25.332 282.431 25.332ZM278.099 27.981H277.032C276.443 27.981 275.966 28.5132 275.966 29.1697V33.9244C275.966 34.5809 276.443 35.1131 277.032 35.1131H278.099C278.688 35.1131 279.166 34.5809 279.166 33.9244V29.1697C279.166 28.5132 278.688 27.981 278.099 27.981ZM272.798 30.4263H271.732C271.143 30.4263 270.665 30.9509 270.665 31.598V33.9414C270.665 34.5885 271.143 35.1131 271.732 35.1131H272.798C273.387 35.1131 273.865 34.5885 273.865 33.9414V31.598C273.865 30.9509 273.387 30.4263 272.798 30.4263Z" fill="black"/>
<path fill-rule="evenodd" clip-rule="evenodd" d="M305.437 25.3022C307.924 25.3023 310.316 26.2244 312.118 27.8779C312.254 28.0055 312.471 28.0039 312.605 27.8743L313.902 26.6108C313.97 26.545 314.007 26.456 314.007 26.3633C314.006 26.2706 313.968 26.182 313.899 26.117C309.168 21.7423 301.704 21.7423 296.973 26.117C296.905 26.1819 296.866 26.2705 296.865 26.3632C296.865 26.4559 296.902 26.545 296.97 26.6108L298.268 27.8743C298.401 28.0041 298.619 28.0057 298.754 27.8779C300.557 26.2243 302.949 25.3022 305.437 25.3022ZM305.433 29.5225C306.791 29.5224 308.099 30.0342 309.106 30.9583C309.242 31.0894 309.456 31.0866 309.589 30.9519L310.876 29.6326C310.944 29.5634 310.981 29.4695 310.98 29.3719C310.979 29.2744 310.94 29.1813 310.871 29.1135C307.807 26.2227 303.062 26.2227 299.998 29.1135C299.929 29.1813 299.89 29.2744 299.889 29.372C299.888 29.4696 299.926 29.5635 299.993 29.6326L301.28 30.9519C301.413 31.0866 301.627 31.0894 301.763 30.9583C302.769 30.0348 304.077 29.5231 305.433 29.5225ZM307.958 32.316C307.96 32.4214 307.922 32.523 307.855 32.5968L305.679 35.0515C305.615 35.1236 305.528 35.1642 305.437 35.1642C305.346 35.1642 305.259 35.1236 305.195 35.0515L303.018 32.5968C302.951 32.5229 302.914 32.4213 302.916 32.316C302.918 32.2106 302.959 32.1108 303.029 32.0402C304.419 30.7263 306.455 30.7263 307.845 32.0402C307.915 32.1109 307.956 32.2107 307.958 32.316Z" fill="black"/>
<rect opacity="0.35" x="321.507" y="23" width="24" height="12" rx="3.8" stroke="black"/>
<path opacity="0.4" d="M347.007 27.2812V31.3567C347.812 31.0116 348.335 30.2086 348.335 29.319C348.335 28.4294 347.812 27.6264 347.007 27.2812Z" fill="black"/>
<rect x="323.007" y="24.5" width="21" height="9" rx="2.5" fill="black"/>
</svg>
