<svg width="98" height="88" viewBox="0 0 98 88" fill="none" xmlns="http://www.w3.org/2000/svg">
<g filter="url(#filter0_di_49_2459)">
<path d="M1 40C1 17.9086 18.9086 0 41 0H94V80H41C18.9086 80 1 62.0914 1 40Z" fill="white" shape-rendering="crispEdges"/>
<mask id="mask0_49_2459" style="mask-type:alpha" maskUnits="userSpaceOnUse" x="34" y="25" width="27" height="30">
<path d="M47.4999 38.2839C48.2686 38.2839 49.0297 38.1286 49.7399 37.8267C50.4501 37.5248 51.0953 37.0822 51.6389 36.5244C52.1824 35.9666 52.6136 35.3043 52.9077 34.5754C53.2019 33.8466 53.3533 33.0654 53.3533 32.2765C53.3533 31.4876 53.2019 30.7064 52.9077 29.9775C52.6136 29.2487 52.1824 28.5864 51.6389 28.0286C51.0953 27.4707 50.4501 27.0282 49.7399 26.7263C49.0297 26.4244 48.2686 26.269 47.4999 26.269C45.9475 26.269 44.4586 26.902 43.3609 28.0286C42.2632 29.1552 41.6465 30.6832 41.6465 32.2765C41.6465 33.8698 42.2632 35.3978 43.3609 36.5244C44.4586 37.651 45.9475 38.2839 47.4999 38.2839Z" fill="white" stroke="white" stroke-linecap="round" stroke-linejoin="round"/>
<path d="M34.957 52.7018V53.7317H60.0431V52.7018C60.0431 48.8571 60.0431 46.9347 59.3139 45.4654C58.6726 44.1736 57.6492 43.1234 56.3906 42.4652C54.959 41.7168 53.0859 41.7168 49.3397 41.7168H45.6604C41.9142 41.7168 40.0411 41.7168 38.6096 42.4652C37.3509 43.1234 36.3275 44.1736 35.6862 45.4654C34.957 46.9347 34.957 48.8571 34.957 52.7018Z" fill="white" stroke="white" stroke-linecap="round" stroke-linejoin="round"/>
</mask>
<g mask="url(#mask0_49_2459)">
<path d="M31.6123 17.6865H71.75V58.8805H31.6123V17.6865Z" fill="#77AE50"/>
</g>
</g>
<defs>
<filter id="filter0_di_49_2459" x="-3" y="0" width="101" height="88" filterUnits="userSpaceOnUse" color-interpolation-filters="sRGB">
<feFlood flood-opacity="0" result="BackgroundImageFix"/>
<feColorMatrix in="SourceAlpha" type="matrix" values="0 0 0 0 0 0 0 0 0 0 0 0 0 0 0 0 0 0 127 0" result="hardAlpha"/>
<feOffset dy="4"/>
<feGaussianBlur stdDeviation="2"/>
<feComposite in2="hardAlpha" operator="out"/>
<feColorMatrix type="matrix" values="0 0 0 0 0.0488194 0 0 0 0 0.316667 0 0 0 0 0.0595333 0 0 0 0.09 0"/>
<feBlend mode="normal" in2="BackgroundImageFix" result="effect1_dropShadow_49_2459"/>
<feBlend mode="normal" in="SourceGraphic" in2="effect1_dropShadow_49_2459" result="shape"/>
<feColorMatrix in="SourceAlpha" type="matrix" values="0 0 0 0 0 0 0 0 0 0 0 0 0 0 0 0 0 0 127 0" result="hardAlpha"/>
<feOffset dx="-2"/>
<feGaussianBlur stdDeviation="2"/>
<feComposite in2="hardAlpha" operator="arithmetic" k2="-1" k3="1"/>
<feColorMatrix type="matrix" values="0 0 0 0 0.0470588 0 0 0 0 0.317647 0 0 0 0 0.0588235 0 0 0 0.06 0"/>
<feBlend mode="normal" in2="shape" result="effect2_innerShadow_49_2459"/>
</filter>
</defs>
</svg>
